<svg width="127" height="127" viewBox="0 0 127 127" fill="none" xmlns="http://www.w3.org/2000/svg">
<path d="M63.5 40.6797C58.9866 40.6797 54.5745 42.0181 50.8217 44.5256C47.0689 47.0331 44.144 50.5972 42.4168 54.767C40.6896 58.9369 40.2376 63.5253 41.1182 67.952C41.9987 72.3787 44.1721 76.4449 47.3636 79.6364C50.5551 82.8279 54.6213 85.0013 59.048 85.8818C63.4747 86.7624 68.0631 86.3104 72.233 84.5832C76.4028 82.856 79.9669 79.9311 82.4744 76.1783C84.9819 72.4255 86.3203 68.0134 86.3203 63.5C86.3203 57.4477 83.916 51.6432 79.6364 47.3636C75.3568 43.084 69.5523 40.6797 63.5 40.6797ZM63.5 80.3672C60.164 80.3672 56.9029 79.3779 54.1291 77.5246C51.3553 75.6712 49.1934 73.0369 47.9168 69.9548C46.6401 66.8727 46.3061 63.4813 46.9569 60.2094C47.6077 56.9375 49.2142 53.932 51.5731 51.5731C53.932 49.2142 56.9375 47.6077 60.2094 46.9569C63.4813 46.3061 66.8727 46.6401 69.9548 47.9168C73.0369 49.1934 75.6712 51.3553 77.5246 54.1291C79.3779 56.9029 80.3672 60.164 80.3672 63.5C80.3541 67.9694 78.5728 72.2521 75.4124 75.4124C72.2521 78.5728 67.9694 80.3541 63.5 80.3672ZM85.3281 14.8828H41.6719C34.567 14.8828 27.7531 17.7052 22.7291 22.7291C17.7052 27.7531 14.8828 34.567 14.8828 41.6719V85.3281C14.8828 92.433 17.7052 99.2469 22.7291 104.271C27.7531 109.295 34.567 112.117 41.6719 112.117H85.3281C92.433 112.117 99.2469 109.295 104.271 104.271C109.295 99.2469 112.117 92.433 112.117 85.3281V41.6719C112.117 34.567 109.295 27.7531 104.271 22.7291C99.2469 17.7052 92.433 14.8828 85.3281 14.8828ZM106.164 85.3281C106.164 90.8542 103.969 96.1539 100.061 100.061C96.1539 103.969 90.8542 106.164 85.3281 106.164H41.6719C36.1458 106.164 30.8461 103.969 26.9386 100.061C23.0311 96.1539 20.8359 90.8542 20.8359 85.3281V41.6719C20.8359 36.1458 23.0311 30.8461 26.9386 26.9386C30.8461 23.0311 36.1458 20.8359 41.6719 20.8359H85.3281C90.8542 20.8359 96.1539 23.0311 100.061 26.9386C103.969 30.8461 106.164 36.1458 106.164 41.6719V85.3281ZM94.2578 37.7031C94.2578 38.6843 93.9669 39.6435 93.4217 40.4593C92.8766 41.2751 92.1018 41.911 91.1953 42.2864C90.2888 42.6619 89.2914 42.7602 88.329 42.5687C87.3667 42.3773 86.4828 41.9048 85.789 41.211C85.0952 40.5172 84.6227 39.6333 84.4313 38.671C84.2398 37.7086 84.3381 36.7111 84.7136 35.8047C85.089 34.8982 85.7249 34.1234 86.5407 33.5783C87.3565 33.0331 88.3157 32.7422 89.2969 32.7422C90.6126 32.7422 91.8744 33.2649 92.8048 34.1952C93.7351 35.1256 94.2578 36.3874 94.2578 37.7031Z" fill="white"/>
</svg>
