<svg width="127" height="127" viewBox="0 0 127 127" fill="none" xmlns="http://www.w3.org/2000/svg">
<path d="M116.126 14.6318C114.984 13.6861 113.609 13.0667 112.144 12.8394C110.68 12.6121 109.181 12.7853 107.807 13.3406L12.9962 51.6153C11.4641 52.2449 10.1598 53.3256 9.25627 54.7139C8.35278 56.1022 7.8929 57.7324 7.93768 59.3882C7.98246 61.0441 8.52979 62.6471 9.507 63.9845C10.4842 65.322 11.8451 66.3306 13.409 66.8764L33.8666 73.9778L44.9526 110.628C44.9738 110.702 45.0426 110.75 45.0743 110.818C45.1885 111.111 45.3553 111.38 45.5664 111.612C45.8872 111.97 46.3013 112.232 46.7624 112.369C46.8153 112.39 46.8523 112.438 46.9052 112.448H46.937L46.9529 112.454C47.3622 112.542 47.7876 112.52 48.1858 112.39C48.2281 112.379 48.2705 112.379 48.3181 112.364C48.7004 112.229 49.0464 112.008 49.3288 111.718C49.3606 111.681 49.4135 111.676 49.4452 111.644L65.389 94.0438L88.6565 112.062C90.0694 113.168 91.8103 113.766 93.6042 113.766C97.4883 113.766 100.838 111.046 101.637 107.252L118.898 22.4899C119.191 21.051 119.088 19.5596 118.6 18.1747C118.111 16.7899 117.256 15.5635 116.126 14.6265V14.6318ZM50.7364 80.9364L46.9952 99.1239L39.19 73.3111L77.8985 53.1498L51.4561 79.5976C51.0899 79.9635 50.8396 80.4291 50.7364 80.9364ZM96.4511 106.188C96.3518 106.668 96.1307 107.114 95.8091 107.484C95.4876 107.854 95.0763 108.135 94.6149 108.3C94.1647 108.473 93.6772 108.526 93.2003 108.454C92.7233 108.381 92.2735 108.186 91.895 107.887L66.6908 88.3659C66.1639 87.9592 65.5031 87.766 64.8401 87.8248C64.1771 87.8836 63.5606 88.1902 63.1136 88.6834L52.017 100.912L55.7529 82.7779L93.7947 44.7308C94.2402 44.2838 94.5113 43.6924 94.559 43.0631C94.6067 42.4338 94.4279 41.8082 94.0549 41.2992C93.6819 40.7901 93.1393 40.4312 92.5249 40.2871C91.9105 40.143 91.2648 40.2232 90.7044 40.5134L35.8668 69.0778L15.1394 61.8705C14.5898 61.689 14.1105 61.3407 13.7681 60.8741C13.4257 60.4075 13.2373 59.8457 13.2291 59.267C13.2027 58.6832 13.3587 58.1056 13.6754 57.6145C13.9921 57.1233 14.4538 56.7429 14.9965 56.5259L109.791 18.2513C110.277 18.0449 110.811 17.9782 111.333 18.0586C111.854 18.139 112.343 18.3633 112.744 18.7064C113.143 19.0291 113.444 19.4564 113.614 19.9404C113.784 20.4244 113.817 20.9462 113.707 21.4475L96.4511 106.194V106.188Z" fill="white"/>
</svg>
