<svg width="127" height="127" viewBox="0 0 127 127" fill="none" xmlns="http://www.w3.org/2000/svg">
<path d="M119.062 18.9912C119.062 18.5242 118.939 18.0655 118.704 17.6618C118.469 17.2581 118.132 16.9237 117.726 16.6926C117.32 16.4614 116.86 16.3418 116.394 16.3459C115.927 16.35 115.469 16.4776 115.067 16.7158C111.343 18.9335 107.298 20.5614 103.076 21.5418C98.4623 17.1366 92.3211 14.69 85.9419 14.7155C82.4771 14.7205 79.051 15.4445 75.8805 16.842C72.7099 18.2394 69.864 20.2797 67.5227 22.8339C65.1815 25.388 63.3959 28.4003 62.279 31.6802C61.1621 34.9601 60.7382 38.4361 61.034 41.8882C45.038 40.1882 30.361 32.2383 20.1982 19.7691C19.927 19.4378 19.5794 19.1773 19.1853 19.01C18.7912 18.8426 18.3624 18.7734 17.9357 18.8083C17.5089 18.8431 17.097 18.981 16.7353 19.2101C16.3736 19.4393 16.073 19.7527 15.8591 20.1236C13.6637 23.9521 12.5088 28.2886 12.5094 32.7019C12.503 37.5456 13.9038 42.2868 16.5417 46.3491L16.2242 46.1745C15.8096 45.971 15.3493 45.8786 14.8882 45.9064C14.4272 45.9343 13.9813 46.0813 13.5942 46.3332C13.1909 46.5955 12.8599 46.9548 12.6315 47.3783C12.4031 47.8017 12.2847 48.2757 12.2872 48.7568C12.266 49.3812 12.3031 50.011 12.4036 50.6248C12.6537 54.1185 13.6402 57.5197 15.2982 60.605C16.9562 63.6904 19.2483 66.39 22.0239 68.5265C21.6856 68.6261 21.3706 68.7923 21.0975 69.0154C20.8244 69.2385 20.5986 69.5139 20.4334 69.8255C20.2683 70.137 20.1671 70.4785 20.1358 70.8297C20.1045 71.181 20.1437 71.535 20.2512 71.8708C21.4736 75.6824 23.5971 79.1429 26.4417 81.959C29.2864 84.775 32.7681 86.8636 36.5918 88.0474C28.7839 92.4187 19.7914 94.2028 10.9061 93.1433C10.3107 93.0689 9.70761 93.199 9.1959 93.5124C8.68418 93.8258 8.29419 94.3038 8.08992 94.868C7.88564 95.4322 7.87922 96.0491 8.07171 96.6174C8.2642 97.1858 8.64416 97.6718 9.14924 97.9958C19.7826 104.843 32.1628 108.482 44.8098 108.479C59.1564 108.637 73.1533 104.05 84.6237 95.4317C96.0941 86.8131 104.395 74.6457 108.236 60.8218C110.03 54.8052 110.945 48.5557 110.956 42.2745C110.956 41.6395 110.956 40.9781 110.94 40.306C113.692 37.5076 115.835 34.1694 117.233 30.5019C118.631 26.8343 119.254 22.9115 119.062 18.9912ZM106.235 37.6867C105.801 38.2006 105.579 38.8614 105.616 39.5334C105.905 46.2228 105.076 52.9135 103.161 59.3296C99.7458 72.1154 92.1399 83.3859 81.5609 91.3372C70.9818 99.2886 58.041 103.461 44.8098 103.187C36.7348 103.187 28.7413 101.573 21.2989 98.4403C30.0456 97.4699 38.343 94.0592 45.2437 88.5978C45.673 88.2603 45.9874 87.7982 46.1437 87.2749C46.3 86.7516 46.2905 86.1928 46.1166 85.6751C45.9427 85.1575 45.6128 84.7063 45.1723 84.3835C44.7318 84.0607 44.2022 83.8822 43.6562 83.8723C40.2693 83.8172 36.9543 82.8867 34.0334 81.1713C31.1126 79.4559 28.6852 77.0139 26.9874 74.0827C29.2364 74.088 31.4695 73.7811 33.6232 73.162C34.1908 72.9956 34.6863 72.6439 35.0306 72.1629C35.3749 71.6819 35.5481 71.0994 35.5225 70.5085C35.4969 69.9175 35.274 69.3522 34.8895 68.9028C34.5049 68.4533 33.9808 68.1457 33.4009 68.0291C29.6131 67.2711 26.1335 65.4113 23.3987 62.6831C20.6639 59.9549 18.7958 56.4798 18.0287 52.6938C20.2759 53.4226 22.6152 53.8288 24.9766 53.9003C25.5584 53.9434 26.137 53.7819 26.6123 53.4437C27.0877 53.1056 27.43 52.612 27.5801 52.0482C27.753 51.501 27.7432 50.9124 27.5523 50.3712C27.3614 49.83 26.9997 49.3655 26.5218 49.0479C23.8296 47.2559 21.6238 44.8242 20.1019 41.9706C18.58 39.1171 17.7895 35.9306 17.8011 32.6966C17.8011 30.5112 18.1557 28.3416 18.8594 26.2778C30.5912 38.9462 46.8068 46.5318 64.0503 47.418C64.4623 47.4621 64.8786 47.3979 65.2582 47.2318C65.6377 47.0656 65.9674 46.8034 66.2146 46.4708C66.477 46.1563 66.6628 45.7852 66.7574 45.3867C66.852 44.9882 66.8527 44.5731 66.7596 44.1742C66.4103 42.7147 66.2328 41.2194 66.2304 39.7187C66.236 34.493 68.3137 29.4828 72.0078 25.7867C75.7019 22.0906 80.711 20.0103 85.9366 20.0019C88.6283 19.9942 91.2924 20.5447 93.7606 21.6185C96.2289 22.6924 98.4477 24.2662 100.277 26.2408C100.584 26.5685 100.97 26.8124 101.398 26.9495C101.826 27.0865 102.281 27.1121 102.722 27.0239C106.477 26.2846 110.128 25.0923 113.596 23.4732C112.695 28.8671 110.123 33.8401 106.235 37.6867Z" fill="white"/>
</svg>
