<?xml version="1.0" standalone="no"?>
<!DOCTYPE svg PUBLIC "-//W3C//DTD SVG 20010904//EN"
 "http://www.w3.org/TR/2001/REC-SVG-20010904/DTD/svg10.dtd">
<svg version="1.0" xmlns="http://www.w3.org/2000/svg"
 width="295.000000pt" height="295.000000pt" viewBox="0 0 295.000000 295.000000"
 preserveAspectRatio="xMidYMid meet">
<metadata>
Created by potrace 1.14, written by Peter Selinger 2001-2017
</metadata>
<g transform="translate(0.000000,295.000000) scale(0.100000,-0.100000)"
fill="#000000" stroke="none">
<path d="M1416 2686 c-8 -23 -69 -210 -136 -416 -67 -206 -127 -390 -133 -407
l-11 -33 -475 0 c-261 0 -471 -3 -468 -7 4 -3 3 -11 -2 -17 -6 -7 -12 -23 -14
-36 -3 -14 -10 -38 -17 -55 -10 -27 -9 -32 12 -50 13 -11 184 -136 380 -278
l356 -258 -18 -57 c-10 -31 -73 -224 -139 -428 -66 -204 -122 -381 -123 -393
-2 -18 11 -33 58 -67 l62 -44 188 137 c104 75 191 140 194 143 3 4 23 18 45
32 22 14 50 34 63 44 12 11 76 57 142 104 l120 85 0 88 c0 86 0 87 -25 87 -23
0 -129 -74 -525 -366 -47 -34 -86 -61 -88 -60 -1 2 9 36 22 77 219 667 203
611 191 663 -11 53 24 24 -452 369 -90 65 -163 119 -163 120 0 1 165 2 367 1
l368 -1 42 30 c42 29 42 30 118 265 42 130 78 243 80 252 13 56 74 212 78 200
4 -8 38 -114 77 -235 39 -121 88 -271 108 -334 33 -101 41 -117 76 -144 39
-31 43 -32 145 -33 58 -1 111 1 117 3 7 3 12 35 12 83 l1 79 -86 3 -87 3 -52
160 c-28 88 -93 289 -144 446 l-93 287 -78 -1 -77 0 -16 -41z"/>
</g>
</svg>
